<?xml version="1.0" encoding="UTF-8" standalone="no"?>
<svg
   xmlns:dc="http://purl.org/dc/elements/1.1/"
   xmlns:cc="http://creativecommons.org/ns#"
   xmlns:rdf="http://www.w3.org/1999/02/22-rdf-syntax-ns#"
   xmlns:svg="http://www.w3.org/2000/svg"
   xmlns="http://www.w3.org/2000/svg"
   xmlns:sodipodi="http://sodipodi.sourceforge.net/DTD/sodipodi-0.dtd"
   xmlns:inkscape="http://www.inkscape.org/namespaces/inkscape"
   width="420.88867mm"
   height="367.96289mm"
   viewBox="0 0 420.88866 367.96288"
   version="1.1"
   id="svg26"
   sodipodi:docname="checkmark.svg"
   inkscape:version="1.0.1 (3bc2e813f5, 2020-09-07)">
  <metadata
     id="metadata32">
    <rdf:RDF>
      <cc:Work
         rdf:about="">
        <dc:format>image/svg+xml</dc:format>
        <dc:type
           rdf:resource="http://purl.org/dc/dcmitype/StillImage" />
        <dc:title></dc:title>
      </cc:Work>
    </rdf:RDF>
  </metadata>
  <defs
     id="defs30" />
  <sodipodi:namedview
     pagecolor="#ffffff"
     bordercolor="#666666"
     borderopacity="1"
     objecttolerance="10"
     gridtolerance="10"
     guidetolerance="10"
     inkscape:pageopacity="0"
     inkscape:pageshadow="2"
     inkscape:window-width="1842"
     inkscape:window-height="1051"
     id="namedview28"
     showgrid="true"
     inkscape:snap-intersection-paths="true"
     inkscape:snap-smooth-nodes="false"
     inkscape:snap-midpoints="false"
     fit-margin-top="0"
     fit-margin-left="0"
     fit-margin-right="0"
     fit-margin-bottom="0"
     inkscape:zoom="0.5"
     inkscape:cx="282.71635"
     inkscape:cy="708.26038"
     inkscape:window-x="69"
     inkscape:window-y="-9"
     inkscape:window-maximized="1"
     inkscape:current-layer="svg26"
     inkscape:document-rotation="0"
     inkscape:lockguides="false">
    <inkscape:grid
       type="xygrid"
       id="grid46"
       originx="1.9874056"
       originy="1.8700056" />
    <sodipodi:guide
       inkscape:locked="false"
       position="2.1171874,365.84568"
       orientation="0,1574.7542"
       id="guide50" />
    <sodipodi:guide
       inkscape:locked="false"
       position="418.77087,365.84568"
       orientation="1374.7204,0"
       id="guide52" />
    <sodipodi:guide
       inkscape:locked="false"
       position="418.77087,2.1175841"
       orientation="0,-1574.7542"
       id="guide54" />
    <sodipodi:guide
       inkscape:locked="false"
       position="2.1171874,2.1175841"
       orientation="-1374.7204,0"
       id="guide56" />
  </sodipodi:namedview>
  <path
     id="rect78"
     style="fill:#000000;stroke-width:2.45231"
     inkscape:label="rect48"
     d="M 0,0.5292969 C 0,123.00716 0,245.48503 0,367.96289 c 140.29623,0 280.59245,0 420.88867,0 0,-122.65429 0,-245.30859 0,-367.96289 C 280.59245,0 140.29623,0 0,0 0,0.1764323 0,0.3528646 0,0.5292969 Z" />
  <rect
     style="fill:#00ff00;stroke-width:2.45231"
     id="rect48"
     width="416.65372"
     height="363.72812"
     x="2.1171875"
     y="2.1171875"
     inkscape:label="rect48"
     sodipodi:insensitive="true" />
  <g
     id="Sketch"
     transform="matrix(1,0,0,-1,176.73639,173.6472)"
     style="fill:#000000">
    <path
       id="Sketch_w0000"
       style="fill:#000000;fill-rule:evenodd;stroke-width:0.35;stroke-miterlimit:4;stroke-dasharray:none"
       d="m -174.6192,-58.032573 c 49.44089,-44.721837 98.88178,-89.443677 148.32267,-134.165517 89.443677,98.88178 178.88735,197.76356 268.33103,296.64534 -24.72045,22.36092 -49.44089,44.72184 -74.16134,67.08276 C 100.7904,97.368675 33.707647,23.207341 -33.375109,-50.953994 c -24.720444,22.360919 -49.440887,44.721838 -74.161331,67.082757 -22.36092,-24.7204453 -44.72184,-49.440891 -67.08276,-74.161336 z" />
    <title
       id="title23">b'Sketch'</title>
  </g>
  <path
     id="path58"
     style="fill:#008000;fill-rule:evenodd;stroke-width:0.35;stroke-miterlimit:4;stroke-dasharray:none"
     d="m 145.05078,225.89063 c -0.67451,1.33682 -2.71391,1.13805 -3.46087,-0.0261 C 117.50916,204.07963 93.428405,182.2947 69.347656,160.50977 47.934895,184.1836 26.522135,207.85742 5.109375,231.53125 53.503255,275.30534 101.89714,319.07943 150.29102,362.85352 238.78711,265.01823 327.28321,167.18295 415.7793,69.347656 392.10547,47.934895 368.43164,26.522135 344.75781,5.109375 278.1888,78.703125 211.61979,152.29688 145.05078,225.89063 Z" />
</svg>
