<?xml version="1.0" encoding="UTF-8" standalone="no"?>
<svg
   xmlns:dc="http://purl.org/dc/elements/1.1/"
   xmlns:cc="http://creativecommons.org/ns#"
   xmlns:rdf="http://www.w3.org/1999/02/22-rdf-syntax-ns#"
   xmlns:svg="http://www.w3.org/2000/svg"
   xmlns="http://www.w3.org/2000/svg"
   xmlns:sodipodi="http://sodipodi.sourceforge.net/DTD/sodipodi-0.dtd"
   xmlns:inkscape="http://www.inkscape.org/namespaces/inkscape"
   width="428.99414mm"
   height="428.99414mm"
   viewBox="0 0 428.99413 428.99413"
   version="1.1"
   id="svg26"
   sodipodi:docname="cross.svg"
   inkscape:version="1.0.1 (3bc2e813f5, 2020-09-07)">
  <metadata
     id="metadata32">
    <rdf:RDF>
      <cc:Work
         rdf:about="">
        <dc:format>image/svg+xml</dc:format>
        <dc:type
           rdf:resource="http://purl.org/dc/dcmitype/StillImage" />
        <dc:title></dc:title>
      </cc:Work>
    </rdf:RDF>
  </metadata>
  <defs
     id="defs30" />
  <sodipodi:namedview
     pagecolor="#ffffff"
     bordercolor="#666666"
     borderopacity="1"
     objecttolerance="10"
     gridtolerance="10"
     guidetolerance="10"
     inkscape:pageopacity="0"
     inkscape:pageshadow="2"
     inkscape:window-width="1842"
     inkscape:window-height="1051"
     id="namedview28"
     showgrid="true"
     fit-margin-top="0"
     fit-margin-left="0"
     fit-margin-right="0"
     fit-margin-bottom="0"
     inkscape:zoom="0.5"
     inkscape:cx="856.98562"
     inkscape:cy="762.96676"
     inkscape:window-x="69"
     inkscape:window-y="-9"
     inkscape:window-maximized="1"
     inkscape:current-layer="svg26">
    <inkscape:grid
       type="xygrid"
       id="grid75"
       originx="2.1171875"
       originy="2.1171875" />
    <sodipodi:guide
       position="2.1171875,426.87695"
       orientation="0,1605.3886"
       id="guide84" />
    <sodipodi:guide
       position="426.87625,426.87695"
       orientation="1605.3886,0"
       id="guide86" />
    <sodipodi:guide
       position="426.87625,2.1178894"
       orientation="0,-1605.3886"
       id="guide88" />
    <sodipodi:guide
       position="2.1171875,2.1178894"
       orientation="-1605.3886,0"
       id="guide90" />
  </sodipodi:namedview>
  <path
     id="rect94"
     style="fill:#000000;stroke-width:0.264583"
     d="M 0,0.5292969 C 0,143.35091 0,286.17253 0,428.99414 c 142.99805,0 285.9961,0 428.99414,0 0,-142.99804 0,-285.99609 0,-428.99414 C 285.9961,0 142.99805,0 0,0 0,0.1764323 0,0.3528646 0,0.5292969 Z" />
  <rect
     style="fill:#ff2a2a;stroke-width:0.264583"
     id="rect92"
     width="424.75903"
     height="424.75903"
     x="2.1171875"
     y="2.1171875" />
  <g
     id="Sketch"
     transform="matrix(1,0,0,-1,214.49671,214.49671)"
     style="fill:#000000">
    <path
       id="Sketch_w0000"
       d="M -212.13203,141.42136 -70.710678,0 -212.13203,-141.42136 -141.42136,-212.13203 0,-70.710678 141.42136,-212.13203 212.13203,-141.42136 70.710678,0 212.13203,141.42136 141.42136,212.13203 0,70.710678 -141.42136,212.13203 -212.13203,141.42136"
       stroke="#000000"
       stroke-width="0.35 px"
       style="fill:#000000;fill-rule:evenodd;stroke-width:0.35;stroke-miterlimit:4;stroke-dasharray:none" />
    <title
       id="title23">b'Sketch'</title>
  </g>
  <path
     id="path34"
     style="fill:#d40000;fill-rule:evenodd;stroke-width:0.35;stroke-miterlimit:4;stroke-dasharray:none"
     d="M 5.3652344,73.076171 C 52.50228,120.21647 99.641914,167.35419 146.77735,214.4961 99.641908,261.63865 52.502282,308.77702 5.3652344,355.91797 27.935546,378.48828 50.505859,401.0586 73.076171,423.62891 120.21647,376.49121 167.35418,329.35092 214.4961,282.21485 c 47.14256,47.13608 94.28092,94.27636 141.42187,141.41406 22.57031,-22.57031 45.14063,-45.14063 67.71094,-67.71094 C 376.49121,308.77702 329.35093,261.63866 282.21485,214.4961 329.35092,167.35418 376.49121,120.21647 423.62891,73.076171 401.0586,50.505859 378.48828,27.935546 355.91797,5.3652344 308.77702,52.502282 261.63865,99.641908 214.4961,146.77735 167.35419,99.641914 120.21647,52.50228 73.076171,5.3652344 50.505859,27.935546 27.935546,50.505859 5.3652344,73.076171 Z" />
</svg>
