<?xml version="1.0" encoding="UTF-8" standalone="no"?>
<svg
   xmlns:dc="http://purl.org/dc/elements/1.1/"
   xmlns:cc="http://creativecommons.org/ns#"
   xmlns:rdf="http://www.w3.org/1999/02/22-rdf-syntax-ns#"
   xmlns:svg="http://www.w3.org/2000/svg"
   xmlns="http://www.w3.org/2000/svg"
   xmlns:sodipodi="http://sodipodi.sourceforge.net/DTD/sodipodi-0.dtd"
   xmlns:inkscape="http://www.inkscape.org/namespaces/inkscape"
   width="412.23438mm"
   height="624.11523mm"
   viewBox="0 0 412.23438 624.11523"
   version="1.1"
   id="svg34"
   sodipodi:docname="question_mark.svg"
   inkscape:version="1.0.1 (3bc2e813f5, 2020-09-07)">
  <metadata
     id="metadata40">
    <rdf:RDF>
      <cc:Work
         rdf:about="">
        <dc:format>image/svg+xml</dc:format>
        <dc:type
           rdf:resource="http://purl.org/dc/dcmitype/StillImage" />
        <dc:title></dc:title>
      </cc:Work>
    </rdf:RDF>
  </metadata>
  <defs
     id="defs38" />
  <sodipodi:namedview
     pagecolor="#ffffff"
     bordercolor="#666666"
     borderopacity="1"
     objecttolerance="10"
     gridtolerance="10"
     guidetolerance="10"
     inkscape:pageopacity="0"
     inkscape:pageshadow="2"
     inkscape:window-width="1842"
     inkscape:window-height="1051"
     id="namedview36"
     showgrid="false"
     inkscape:zoom="0.22959438"
     inkscape:cx="-406.79625"
     inkscape:cy="1033.9581"
     inkscape:window-x="69"
     inkscape:window-y="-9"
     inkscape:window-maximized="1"
     inkscape:current-layer="svg34"
     inkscape:document-rotation="0"
     fit-margin-top="0"
     fit-margin-left="0"
     fit-margin-right="0"
     fit-margin-bottom="0">
    <sodipodi:guide
       position="2.1171874,621.99804"
       orientation="0,1542.0472"
       id="guide58" />
    <sodipodi:guide
       position="410.11719,621.99804"
       orientation="2342.8533,0"
       id="guide60" />
    <sodipodi:guide
       position="410.11719,2.118103"
       orientation="0,-1542.0472"
       id="guide62" />
    <sodipodi:guide
       position="2.1171874,2.118103"
       orientation="-2342.8533,0"
       id="guide64" />
  </sodipodi:namedview>
  <path
     id="rect68"
     style="fill:#000000;stroke-width:0.264583"
     d="M 0,0.5292969 C 0,208.39128 0,416.25326 0,624.11524 c 137.41146,0 274.82292,0 412.23438,0 0,-208.03841 0,-416.07683 0,-624.11524 C 274.82292,0 137.41146,0 0,0 0,0.1764323 0,0.3528646 0,0.5292969 Z" />
  <rect
     style="fill:#ffffff;stroke-width:0.264583"
     id="rect66"
     width="408"
     height="619.87994"
     x="2.1171875"
     y="2.1171899" />
  <circle
     cx="206.11719"
     cy="-567.99713"
     r="50"
     stroke="#000000"
     stroke-width="0.35 px"
     style="fill:#000000;stroke-width:0.35;stroke-miterlimit:4;stroke-dasharray:none"
     id="circle26"
     transform="scale(1,-1)" />
  <path
     id="Sketch_w0001"
     style="fill:#000000;fill-rule:evenodd;stroke-width:0.349999;stroke-miterlimit:4;stroke-dasharray:none"
     d="M 205.84274,6.1174603 A 200,200 0 0 0 6.1169436,206.11714 H 106.11704 a 100.00011,100.00011 0 0 1 200.00021,0 100,100 0 0 1 -100.00011,100.00011 H 156.1171 v 93.64907 50.00003 H 256.11719 V 399.76632 A 200,200 0 0 0 406.11735,206.11714 200,200 0 0 0 205.84274,6.1174603 Z" />
  <path
     id="path43"
     style="fill:#cccccc;fill-rule:evenodd;stroke-width:0.349999;stroke-miterlimit:4;stroke-dasharray:none"
     d="M 203.63086,8.2519531 C 171.26307,8.6414512 139.05616,17.110916 110.68529,32.77313 89.228549,44.594294 70.002156,60.38395 54.312044,79.19383 c -18.33283,21.89589 -31.875427,47.8832 -39.275235,75.51779 -4.238113,15.7413 -6.5234316,31.99071 -6.764039,48.28186 -0.1072934,0.6977 -0.075319,1.25844 0.7830894,1.00652 31.6584626,0 63.3169266,0 94.9753906,0 0.41522,-22.5995 8.64165,-44.97005 22.97558,-62.44833 12.758,-15.65586 30.25791,-27.3953 49.60873,-33.19345 20.34534,-6.15874 42.62612,-5.77328 62.71621,1.20105 18.22337,6.25979 34.61448,17.77565 46.60186,32.87023 11.946,14.95571 19.58222,33.32159 21.6642,52.35477 2.16814,19.36143 -1.3158,39.32765 -10.03079,56.76069 -8.44621,17.00965 -21.71045,31.60318 -37.91475,41.52499 -15.53016,9.56453 -33.64782,14.89267 -51.8921,15.14339 -6.03904,0.072 -12.07893,-0.0149 -18.11839,0.021 -10.46914,0 -20.93828,0 -31.40742,0 0,46.47135 0,92.94271 0,139.41406 31.92187,0 63.84375,0 95.76562,0 0,-16.50651 0,-33.01302 0,-49.51953 27.60453,-6.9067 53.71898,-19.79419 75.92536,-37.65273 22.11572,-17.72939 40.34259,-40.23064 53.03305,-65.58273 11.79821,-23.48182 18.85845,-49.32662 20.59168,-75.52495 1.76743,-26.31376 -1.7704,-52.98417 -10.42763,-77.92575 C 384.50621,116.51049 370.83979,93.285581 353.13168,73.666755 338.14842,57.035572 320.24865,42.931004 300.6086,32.255732 275.64577,18.667601 247.77984,10.597663 219.42108,8.6827651 214.18413,8.3293681 208.90241,8.1885927 203.63086,8.2519531 Z" />
  <path
     id="circle49"
     style="fill:#cccccc;stroke:#000000;stroke-width:0.35;stroke-miterlimit:4;stroke-dasharray:none"
     d="m 205.08203,520.12305 c -12.10237,0.25458 -24.05401,5.26532 -32.62303,13.83436 -7.28053,7.16807 -12.16029,16.71855 -13.66988,26.82573 -1.96046,12.59069 1.3723,25.92356 9.12036,36.05329 6.5477,8.71608 16.14983,15.0903 26.75692,17.64566 11.60972,2.91045 24.28387,1.2048 34.722,-4.64871 10.64734,-5.88344 18.88732,-15.97743 22.44822,-27.6164 3.57083,-11.42193 2.68098,-24.18339 -2.57081,-34.95082 -4.65317,-9.73076 -12.67844,-17.82469 -22.44393,-22.43397 -6.74695,-3.24126 -14.2579,-4.85215 -21.73985,-4.70914 z" />
</svg>
